<?xml version="1.0" encoding="utf-8"?>
<!-- Generator: Adobe Illustrator 23.0.2, SVG Export Plug-In . SVG Version: 6.00 Build 0)  -->
<svg version="1.1" id="Capa_1" xmlns="http://www.w3.org/2000/svg" xmlns:xlink="http://www.w3.org/1999/xlink" x="0px" y="0px"
	 viewBox="0 0 35.7 27.6" style="enable-background:new 0 0 35.7 27.6;" xml:space="preserve">
<style type="text/css">
	.st0{fill:#FFFFFF;}
</style>
<g>
	<g>
		<g>
			<path class="st0" d="M13.4,0.4C13.4,0.4,13.4,0.4,13.4,0.4C13.5,0.4,13.5,0.4,13.4,0.4C13.5,0.4,13.5,0.4,13.4,0.4
				C13.5,0.4,13.5,0.4,13.4,0.4c0.1,0,0.1,0,0.1,0c3.5,0,6.8,1.4,9.3,3.8l2.7-2.8c0.1-0.1,0.3-0.2,0.5-0.1c0.2,0.1,0.3,0.2,0.3,0.4
				l-0.5,9.5H17c0,0,0,0,0,0c-0.2,0-0.5-0.2-0.5-0.5c0-0.2,0.1-0.3,0.2-0.4l2.7-2.7c-1.6-1.5-3.7-2.4-6-2.4C8.8,5.3,5,9.1,5,13.9
				c0,4.7,3.8,8.4,8.6,8.5c3.1-0.2,5.4-0.9,6.8-4l4.1,2.5l0,0c-3.7,5.6-6.9,6.8-12,6.3C5.6,26.6,0.2,20.8,0.2,13.8
				C0.2,6.5,6.1,0.5,13.4,0.4z"/>
		</g>
		<g>
			<path class="st0" d="M14.5,17.4c0-0.2-0.1-0.4-0.2-0.8c-0.2-0.4-0.2-0.5-0.3-0.7c-0.1-0.1-0.2-0.1-0.4-0.1H13v0.8
				c0,0.3,0,0.5,0,0.8H12c0-0.2,0-0.4,0-0.8v-2.7c0-0.3,0-0.5,0-0.7c0.2,0,0.4,0,0.7,0h1.3c0.8,0,1.3,0.4,1.3,1.1
				c0,0.4-0.1,0.6-0.3,0.8c-0.1,0.1-0.2,0.2-0.5,0.2c0.3,0.1,0.4,0.2,0.5,0.6c0.1,0.2,0.1,0.3,0.4,0.9c0.1,0.1,0.1,0.3,0.2,0.5H14.5
				z M13.8,14.9c0.3,0,0.5-0.2,0.5-0.5c0-0.3-0.2-0.4-0.5-0.4H13v0.9H13.8z"/>
			<path class="st0" d="M19.3,17.4c-0.2,0-0.4,0-0.8,0h-1.6c-0.4,0-0.5,0-0.7,0c0-0.2,0-0.4,0-0.7v-2.7c0-0.3,0-0.5,0-0.7
				c0.2,0,0.3,0,0.7,0h1.6c0.3,0,0.5,0,0.7,0v0.9c-0.2,0-0.4,0-0.7,0h-1.3v0.7h1.1c0.3,0,0.5,0,0.8,0v0.9c-0.2,0-0.4,0-0.8,0h-1.1
				v0.8h1.3c0.4,0,0.6,0,0.8,0V17.4z"/>
			<path class="st0" d="M19.8,17.4c0-0.2,0-0.4,0-0.7v-2.7c0-0.3,0-0.5,0-0.7c0.2,0,0.4,0,0.7,0h1.1c1,0,1.5,0.5,1.5,1.3
				c0,0.9-0.6,1.4-1.5,1.4h-0.8v0.6c0,0.3,0,0.5,0,0.8H19.8z M21.5,15.1c0.4,0,0.6-0.2,0.6-0.5c0-0.3-0.2-0.5-0.6-0.5h-0.7v1.1H21.5
				z"/>
			<path class="st0" d="M24.3,17.4c-0.3,0-0.6,0-0.7,0c0-0.2,0-0.4,0-0.7V14c0-0.4,0-0.6,0-0.8h1.1c0,0.3,0,0.4,0,0.8v2.5h1.2
				c0.4,0,0.6,0,0.8,0v1c-0.2,0-0.4,0-0.8,0H24.3z"/>
			<path class="st0" d="M29.9,17.4c0-0.2-0.1-0.4-0.1-0.5l-0.1-0.4h-1.4L28,16.8c-0.1,0.2-0.1,0.4-0.1,0.5h-1.2
				c0.1-0.2,0.1-0.3,0.2-0.6l1.1-3c0.1-0.2,0.1-0.4,0.2-0.5h1.3c0,0.1,0.1,0.3,0.2,0.5l1.1,3c0.1,0.3,0.2,0.5,0.2,0.6H29.9z
				 M28.9,14.1l-0.5,1.5h0.9L28.9,14.1z"/>
			<path class="st0" d="M33.1,16.6c0,0.3,0,0.5,0,0.7H32c0-0.2,0-0.5,0-0.7v-0.9l-1.2-1.9c-0.1-0.2-0.2-0.3-0.4-0.6h1.3
				c0.1,0.2,0.1,0.3,0.2,0.5l0.6,1l0.6-1c0.1-0.2,0.2-0.4,0.2-0.5h1.3c-0.1,0.2-0.3,0.5-0.4,0.6l-1.1,1.9V16.6z"/>
		</g>
	</g>
</g>
</svg>
